<mxfile host="app.diagrams.net" modified="2023-07-11T14:38:59.359Z" agent="Mozilla/5.0 (Windows NT 10.0; Win64; x64) AppleWebKit/537.36 (KHTML, like Gecko) Chrome/114.0.0.0 Safari/537.36" etag="0Crouci9UxoraZKCTfEV" version="21.6.1" type="github">
  <diagram name="Page-1" id="BwnRBdXKa4E6GOIgSqkZ">
    <mxGraphModel dx="1434" dy="788" grid="1" gridSize="10" guides="1" tooltips="1" connect="1" arrows="1" fold="1" page="1" pageScale="1" pageWidth="850" pageHeight="1100" math="0" shadow="0">
      <root>
        <mxCell id="0" />
        <mxCell id="1" parent="0" />
        <mxCell id="X_WVXnbt7o2ZNQTatCL0-10" value="" style="edgeStyle=orthogonalEdgeStyle;rounded=0;orthogonalLoop=1;jettySize=auto;html=1;" parent="1" source="X_WVXnbt7o2ZNQTatCL0-1" target="X_WVXnbt7o2ZNQTatCL0-9" edge="1">
          <mxGeometry relative="1" as="geometry" />
        </mxCell>
        <mxCell id="X_WVXnbt7o2ZNQTatCL0-1" value="START" style="strokeWidth=2;html=1;shape=mxgraph.flowchart.start_1;whiteSpace=wrap;" parent="1" vertex="1">
          <mxGeometry x="375" y="60" width="100" height="60" as="geometry" />
        </mxCell>
        <mxCell id="X_WVXnbt7o2ZNQTatCL0-12" value="" style="edgeStyle=orthogonalEdgeStyle;rounded=0;orthogonalLoop=1;jettySize=auto;html=1;" parent="1" source="X_WVXnbt7o2ZNQTatCL0-9" target="X_WVXnbt7o2ZNQTatCL0-11" edge="1">
          <mxGeometry relative="1" as="geometry" />
        </mxCell>
        <mxCell id="X_WVXnbt7o2ZNQTatCL0-9" value="INPUT" style="shape=parallelogram;perimeter=parallelogramPerimeter;whiteSpace=wrap;html=1;fixedSize=1;strokeWidth=2;" parent="1" vertex="1">
          <mxGeometry x="365" y="160" width="120" height="60" as="geometry" />
        </mxCell>
        <mxCell id="X_WVXnbt7o2ZNQTatCL0-14" value="" style="edgeStyle=orthogonalEdgeStyle;rounded=0;orthogonalLoop=1;jettySize=auto;html=1;" parent="1" source="X_WVXnbt7o2ZNQTatCL0-11" target="X_WVXnbt7o2ZNQTatCL0-13" edge="1">
          <mxGeometry relative="1" as="geometry" />
        </mxCell>
        <mxCell id="X_WVXnbt7o2ZNQTatCL0-11" value="STORE INPUTS IN VARIABLES &lt;b&gt;I, J, K&lt;/b&gt;" style="whiteSpace=wrap;html=1;strokeWidth=2;" parent="1" vertex="1">
          <mxGeometry x="365" y="270" width="120" height="60" as="geometry" />
        </mxCell>
        <mxCell id="X_WVXnbt7o2ZNQTatCL0-18" value="NO" style="edgeStyle=elbowEdgeStyle;rounded=0;orthogonalLoop=1;jettySize=auto;html=1;exitX=0;exitY=0.5;exitDx=0;exitDy=0;entryX=0.042;entryY=0.367;entryDx=0;entryDy=0;entryPerimeter=0;elbow=vertical;" parent="1" source="X_WVXnbt7o2ZNQTatCL0-13" target="X_WVXnbt7o2ZNQTatCL0-9" edge="1">
          <mxGeometry relative="1" as="geometry">
            <mxPoint x="290" y="200" as="targetPoint" />
            <Array as="points">
              <mxPoint x="280" y="300" />
            </Array>
          </mxGeometry>
        </mxCell>
        <mxCell id="X_WVXnbt7o2ZNQTatCL0-23" value="" style="edgeStyle=orthogonalEdgeStyle;rounded=0;orthogonalLoop=1;jettySize=auto;html=1;" parent="1" source="X_WVXnbt7o2ZNQTatCL0-13" target="X_WVXnbt7o2ZNQTatCL0-22" edge="1">
          <mxGeometry relative="1" as="geometry" />
        </mxCell>
        <mxCell id="X_WVXnbt7o2ZNQTatCL0-26" value="YES" style="edgeLabel;html=1;align=center;verticalAlign=middle;resizable=0;points=[];" parent="X_WVXnbt7o2ZNQTatCL0-23" vertex="1" connectable="0">
          <mxGeometry x="-0.4" y="3" relative="1" as="geometry">
            <mxPoint x="-4" as="offset" />
          </mxGeometry>
        </mxCell>
        <mxCell id="X_WVXnbt7o2ZNQTatCL0-13" value="ARE THEY NUMBERS" style="rhombus;whiteSpace=wrap;html=1;strokeWidth=2;" parent="1" vertex="1">
          <mxGeometry x="370" y="370" width="110" height="110" as="geometry" />
        </mxCell>
        <mxCell id="X_WVXnbt7o2ZNQTatCL0-25" value="" style="edgeStyle=orthogonalEdgeStyle;rounded=0;orthogonalLoop=1;jettySize=auto;html=1;" parent="1" source="X_WVXnbt7o2ZNQTatCL0-22" target="X_WVXnbt7o2ZNQTatCL0-24" edge="1">
          <mxGeometry relative="1" as="geometry" />
        </mxCell>
        <mxCell id="X_WVXnbt7o2ZNQTatCL0-22" value="SQUARE ALL INPUTS &lt;b&gt;I, J, K&lt;/b&gt;" style="whiteSpace=wrap;html=1;strokeWidth=2;" parent="1" vertex="1">
          <mxGeometry x="365" y="520" width="120" height="60" as="geometry" />
        </mxCell>
        <mxCell id="X_WVXnbt7o2ZNQTatCL0-28" value="" style="edgeStyle=orthogonalEdgeStyle;rounded=0;orthogonalLoop=1;jettySize=auto;html=1;" parent="1" source="X_WVXnbt7o2ZNQTatCL0-24" target="X_WVXnbt7o2ZNQTatCL0-27" edge="1">
          <mxGeometry relative="1" as="geometry" />
        </mxCell>
        <mxCell id="X_WVXnbt7o2ZNQTatCL0-24" value="ADD SQUARED INPUTS" style="whiteSpace=wrap;html=1;strokeWidth=2;" parent="1" vertex="1">
          <mxGeometry x="365" y="620" width="120" height="60" as="geometry" />
        </mxCell>
        <mxCell id="X_WVXnbt7o2ZNQTatCL0-27" value="STOP" style="ellipse;whiteSpace=wrap;html=1;strokeWidth=2;" parent="1" vertex="1">
          <mxGeometry x="385" y="750" width="80" height="80" as="geometry" />
        </mxCell>
      </root>
    </mxGraphModel>
  </diagram>
</mxfile>
